<?xml version="1.0" encoding="UTF-8" standalone="no"?>
<!-- Created with Inkscape (http://www.inkscape.org/) -->

<svg
   xmlns:dc="http://purl.org/dc/elements/1.1/"
   xmlns:cc="http://creativecommons.org/ns#"
   xmlns:rdf="http://www.w3.org/1999/02/22-rdf-syntax-ns#"
   xmlns:svg="http://www.w3.org/2000/svg"
   xmlns="http://www.w3.org/2000/svg"
   xmlns:sodipodi="http://sodipodi.sourceforge.net/DTD/sodipodi-0.dtd"
   xmlns:inkscape="http://www.inkscape.org/namespaces/inkscape"
   version="1.1"
   id="svg10"
   width="1000"
   height="335"
   viewBox="0 0 1000 335"
   sodipodi:docname="Logo_CWM.svg"
   inkscape:version="0.92.3 (2405546, 2018-03-11)">
  <metadata
     id="metadata16">
    <rdf:RDF>
      <cc:Work
         rdf:about="">
        <dc:format>image/svg+xml</dc:format>
        <dc:type
           rdf:resource="http://purl.org/dc/dcmitype/StillImage" />
        <dc:title />
      </cc:Work>
    </rdf:RDF>
  </metadata>
  <defs
     id="defs14" />
  <sodipodi:namedview
     pagecolor="#ffffff"
     bordercolor="#666666"
     borderopacity="1"
     objecttolerance="10"
     gridtolerance="10"
     guidetolerance="10"
     inkscape:pageopacity="0"
     inkscape:pageshadow="2"
     inkscape:window-width="1920"
     inkscape:window-height="986"
     id="namedview12"
     showgrid="false"
     inkscape:zoom="0.96307944"
     inkscape:cx="391.16775"
     inkscape:cy="228.77096"
     inkscape:window-x="-11"
     inkscape:window-y="-11"
     inkscape:window-maximized="1"
     inkscape:current-layer="svg10" />
  <path
     style="fill:#302ba3;fill-opacity:1"
     d="m 169.90392,277.7951 c -0.0605,-30.3875 -0.33359,-55.25 -0.60678,-55.25 -0.50311,0 -36.29804,19.70946 -66.5033,36.61815 -9.074997,5.08012 -16.499994,9.82572 -16.499994,10.54578 0,2.02218 12.899197,10.5468 23.999994,15.86075 12.27809,5.8775 22.55824,9.32818 34.15513,11.46463 15.72598,2.89714 14.33827,2.00653 16.88705,10.83791 1.7558,6.08376 1.9706,7.92251 0.97032,8.30636 -2.01304,0.77247 -16.88358,-1.52706 -27.18702,-4.20412 -21.70858,-5.64037 -42.067527,-16.45279 -57.968754,-30.7866 l -5.14328,-4.6363 -8.85672,4.67917 -8.85672,4.67917 39.499997,-40.39553 c 21.724997,-22.21754 47.330007,-48.39964 56.900027,-58.18245 9.57002,-9.78281 17.78252,-17.78692 18.25,-17.78692 0.46748,0 0.84997,11.88475 0.84997,26.41056 v 26.41056 l 14,7.67888 c 7.7,4.22338 14,7.78821 14,7.92183 0,0.13363 -3.825,13.4702 -8.5,29.63683 -4.675,16.16663 -8.5,29.9558 -8.5,30.64261 0,1.33842 0.45205,1.29504 14.5,-1.39147 17.71132,-3.3871 38.69239,-12.43498 52.13241,-22.48159 l 6.75425,-5.0489 5.36295,2.86034 c 2.94962,1.57319 5.75296,3.31469 6.22963,3.86999 0.96878,1.12857 -9.57962,10.53969 -18.78355,16.75841 -17.88478,12.08401 -42.54359,20.86009 -65.30833,23.24327 l -6.61263,0.69225 -2.52728,8.14822 -2.52729,8.14821 z m 82.42931,-25.05783 C 235.33296,235.30658 209.65668,209.1201 195.27484,194.5451 l -26.1488,-26.5 -26.4161,0.28552 -26.4161,0.28552 -7.31698,13.96448 c -4.02434,7.68046 -7.7036,13.96448 -8.17615,13.96448 -0.47254,0 -15.320284,-4.32211 -32.994984,-9.60469 -17.67471,-5.28258 -32.342528,-9.39799 -32.595158,-9.14536 -0.25263,0.25263 0.41314,4.96007 1.47949,10.46098 4.56442,23.54613 13.928958,43.71929 28.730668,61.8918 l 4.49653,5.52053 -2.90097,5.13479 c -1.59553,2.82414 -3.3108,5.26933 -3.8117,5.43377 -0.50091,0.16443 -3.38331,-3.06328 -6.40534,-7.17271 -15.101568,-20.53546 -24.241158,-44.973 -27.304638,-73.00749 l -1.20076,-10.98839 -9.75,-2.95199 c -5.3625,-1.6236 -9.7500003,-3.31633 -9.7500003,-3.76162 0,-0.44529 24.0750003,-0.80962 53.4999983,-0.80962 29.424997,0 53.499994,-0.20221 53.499994,-0.44936 0,-0.48488 -25.351007,-48.34971 -47.384264,-89.465472 -7.49067,-13.978158 -13.47539,-25.558835 -13.29939,-25.734839 0.176,-0.176003 5.46433,4.961262 11.75183,11.416144 C 118.06255,115.8751 168.13973,166.5451 168.88774,166.5451 c 0.51853,0 0.9061,-11.26372 0.9061,-26.33335 V 113.8784 l 50.21463,-27.916649 c 27.61804,-15.354158 53.38054,-29.643758 57.25,-31.754668 l 7.03537,-3.838019 -3,3.298737 c -1.65,1.814305 -23.48613,24.241413 -48.52473,49.838019 -25.0386,25.5966 -49.30593,50.47678 -53.92738,55.28928 l -8.40265,8.75 h 25.65432 c 25.51775,0 25.66188,0.012 27.07208,2.25 0.77977,1.2375 11.17909,20.7 23.10961,43.25 11.93053,22.55 21.86704,41.17663 22.08114,41.3925 1.61068,1.62402 13.70954,-14.88939 20.2781,-27.67702 6.24419,-12.15616 11.46297,-27.42252 13.74759,-40.21548 0.9331,-5.225 1.74593,-9.57592 1.80629,-9.66872 0.0604,-0.0928 1.41844,-0.49718 3.01797,-0.89864 l 2.90825,-0.72992 -0.66141,8.89864 c -1.89321,25.47157 -12.04755,53.20645 -27.21085,74.32188 l -6.76696,9.42325 4.26196,7.89077 c 2.34409,4.33992 4.0918,8.06094 3.88381,8.26893 -0.20798,0.20799 -14.28747,-13.88332 -31.28775,-31.31402 z m -28.81162,-84.79774 c -0.57027,-0.57026 10.02681,-21.50186 13.27223,-26.21564 l 1.5,-2.17866 6.5,1.93942 c 3.575,1.06668 17.89414,5.34165 31.8203,9.49993 13.92617,4.15829 26.01051,7.56052 26.85409,7.56052 1.30969,0 1.43385,-1.2053 0.84981,-8.25 -0.84952,-10.24687 -3.80754,-25.35389 -6.49239,-33.15755 -2.26687,-6.58876 -2.50511,-8.01227 -0.86957,-5.19567 3.97695,6.84877 9.66365,26.38654 11.78811,40.50031 0.61239,4.0684 1.30956,7.71444 1.54927,8.1023 0.23972,0.38787 4.72537,1.99389 9.96811,3.56894 5.24275,1.57505 9.53227,3.21652 9.53227,3.6477 0,0.90904 -105.36472,1.08592 -106.27223,0.1784 z M 29.793848,157.15557 c 0,-8.69751 7.5408,-37.07188 11.58996,-43.61047 0.85361,-1.3784 1.29374,-1.68043 0.98103,-0.67321 -4.0369,13.00281 -5.90502,21.37756 -7.28826,32.67321 -0.90925,7.425 -2.13233,13.83061 -2.71796,14.23469 -1.98384,1.36884 -2.56477,0.77444 -2.56477,-2.62422 z m 125.277642,-50.9195 c -7.2723,-3.95503 -13.25375,-7.640969 -13.29213,-8.190969 -0.1465,-2.09942 26.45935,-93.5000005 27.21697,-93.5000005 0.43863,0 0.79751,24.5250005 0.79751,54.5000005 0,29.975 -0.3375,54.473439 -0.75,54.440969 -0.4125,-0.0325 -6.70006,-3.29496 -13.97235,-7.25 z"
     id="path3742"
     inkscape:connector-curvature="0" />
  <text
     xml:space="preserve"
     style="font-style:normal;font-variant:normal;font-weight:bold;font-stretch:normal;font-size:74.66666412px;line-height:1.25;font-family:'Trebuchet MS';-inkscape-font-specification:'Trebuchet MS, Bold';font-variant-ligatures:normal;font-variant-caps:normal;font-variant-numeric:normal;font-feature-settings:normal;text-align:start;letter-spacing:0px;word-spacing:0px;writing-mode:lr-tb;text-anchor:start;fill:#302ba3;fill-opacity:1;stroke:none;"
     x="357.70673"
     y="137.13786"
     id="text3746"><tspan
       sodipodi:role="line"
       id="tspan3744"
       x="357.70673"
       y="137.13786">Chaney Wealth</tspan></text>
  <text
     xml:space="preserve"
     style="font-style:normal;font-variant:normal;font-weight:bold;font-stretch:normal;font-size:74.66666412px;line-height:1.25;font-family:'Trebuchet MS';-inkscape-font-specification:'Trebuchet MS, Bold';font-variant-ligatures:normal;font-variant-caps:normal;font-variant-numeric:normal;font-feature-settings:normal;text-align:start;letter-spacing:0px;word-spacing:0px;writing-mode:lr-tb;text-anchor:start;fill:#302ba3;fill-opacity:1;stroke:none;"
     x="394.56763"
     y="239.93312"
     id="text3750"><tspan
       sodipodi:role="line"
       id="tspan3748"
       x="394.56763"
       y="239.93312">Management</tspan></text>
</svg>
